<svg width="611" height="411" viewBox="0 0 611 411" fill="none" xmlns="http://www.w3.org/2000/svg">
<path fill-rule="evenodd" clip-rule="evenodd" d="M0 411V106H424V211L395.894 236.5L395.5 151L285.5 252.5L395.5 362.5L396 259L424 233.5V411H0ZM161 271.5L49.5 383C157.667 383.333 374 383 374 383L263.5 272L211.5 318.5L161 271.5ZM52 135H373L211.5 281L52 135ZM28 151L139 253L28 364V151Z" fill="url(#paint0_linear_3005_1778)"></path>
<path fill-rule="evenodd" clip-rule="evenodd" d="M297 106V0H483L590 103.5V201L513.5 273L611 410H501L424 306.5V233.5L511.5 152.5L446.5 90H368.5L326 47.5V106H297ZM557 383H515L429.5 266L456 241.5L557 383ZM562 142.5V190L497 250L477 222.5L562 142.5ZM557 110L531 134L458.5 63H381L347 27H471.5L557 110Z" fill="url(#paint1_linear_3005_1778)"></path>
<defs>
<linearGradient id="paint0_linear_3005_1778" x1="670.849" y1="429.553" x2="291.674" y2="-133.931" gradientUnits="userSpaceOnUse">
<stop stop-color="#FF9386"></stop>
<stop offset="0.5" stop-color="#FE6755"></stop>
<stop offset="1" stop-color="#FF9386"></stop>
</linearGradient>
<linearGradient id="paint1_linear_3005_1778" x1="670.849" y1="429.553" x2="291.674" y2="-133.931" gradientUnits="userSpaceOnUse">
<stop stop-color="#FF9386"></stop>
<stop offset="0.5" stop-color="#FE6755"></stop>
<stop offset="1" stop-color="#FF9386"></stop>
</linearGradient>
</defs>
</svg>
