<svg width="1610" height="411" viewBox="0 0 1610 411" fill="none" xmlns="http://www.w3.org/2000/svg">
<path d="M1606.86 120.273V154.364H1508.32V120.273H1606.86ZM1530.69 81.0681H1576.07V233.625C1576.07 237.815 1576.71 241.082 1577.99 243.426C1579.27 245.699 1581.05 247.297 1583.32 248.22C1585.66 249.143 1588.36 249.605 1591.41 249.605C1593.55 249.605 1595.68 249.428 1597.81 249.072C1599.94 248.646 1601.57 248.327 1602.71 248.114L1609.84 281.885C1607.57 282.595 1604.38 283.412 1600.26 284.335C1596.14 285.329 1591.13 285.933 1585.24 286.146C1574.3 286.572 1564.71 285.116 1556.47 281.778C1548.3 278.44 1541.95 273.256 1537.4 266.224C1532.86 259.193 1530.62 250.315 1530.69 239.591V81.0681Z" fill="white"></path>
<path d="M1378.59 189.307V283.909H1333.2V120.273H1376.46V149.144H1378.37C1382 139.626 1388.07 132.098 1396.59 126.558C1405.11 120.947 1415.45 118.142 1427.59 118.142C1438.96 118.142 1448.86 120.628 1457.31 125.599C1465.77 130.571 1472.34 137.673 1477.02 146.906C1481.71 156.068 1484.05 167.006 1484.05 179.719V283.909H1438.67V187.815C1438.74 177.801 1436.19 169.989 1431 164.378C1425.82 158.696 1418.68 155.855 1409.59 155.855C1403.48 155.855 1398.08 157.169 1393.39 159.797C1388.78 162.425 1385.16 166.26 1382.53 171.303C1379.97 176.274 1378.66 182.276 1378.59 189.307Z" fill="white"></path>
<path d="M1185.44 345.273C1179.69 345.273 1174.29 344.811 1169.25 343.888C1164.27 343.035 1160.16 341.935 1156.89 340.585L1167.12 306.707C1172.44 308.341 1177.24 309.229 1181.5 309.371C1185.83 309.513 1189.56 308.518 1192.68 306.388C1195.88 304.257 1198.47 300.635 1200.46 295.521L1203.12 288.597L1144.42 120.273H1192.15L1226.03 240.443H1227.73L1261.93 120.273H1309.98L1246.38 301.594C1243.32 310.401 1239.17 318.071 1233.91 324.605C1228.73 331.21 1222.16 336.288 1214.2 339.839C1206.25 343.462 1196.66 345.273 1185.44 345.273Z" fill="white"></path>
<path d="M1121.07 65.7273V283.909H1075.68V65.7273H1121.07Z" fill="white"></path>
<path d="M970.96 287.105C954.127 287.105 939.639 283.696 927.494 276.878C915.42 269.989 906.116 260.259 899.582 247.688C893.048 235.045 889.781 220.095 889.781 202.837C889.781 186.004 893.048 171.232 899.582 158.519C906.116 145.805 915.314 135.898 927.174 128.795C939.106 121.693 953.098 118.142 969.149 118.142C979.944 118.142 989.994 119.882 999.298 123.362C1008.67 126.771 1016.84 131.92 1023.8 138.81C1030.83 145.699 1036.3 154.364 1040.21 164.804C1044.11 175.173 1046.07 187.318 1046.07 201.239V213.703H907.892V185.578H1003.35C1003.35 179.044 1001.93 173.256 999.085 168.213C996.244 163.171 992.302 159.229 987.26 156.388C982.288 153.476 976.5 152.02 969.895 152.02C963.005 152.02 956.897 153.618 951.571 156.814C946.315 159.939 942.196 164.165 939.213 169.492C936.23 174.747 934.703 180.607 934.632 187.07V213.81C934.632 221.906 936.123 228.902 939.106 234.797C942.16 240.692 946.457 245.237 951.997 248.433C957.537 251.629 964.106 253.227 971.706 253.227C976.748 253.227 981.365 252.517 985.555 251.097C989.745 249.676 993.332 247.546 996.315 244.705C999.298 241.864 1001.57 238.384 1003.13 234.264L1045.11 237.034C1042.98 247.119 1038.61 255.926 1032 263.455C1025.47 270.912 1017.02 276.736 1006.65 280.926C996.351 285.046 984.454 287.105 970.96 287.105Z" fill="white"></path>
<path d="M703 283.909V65.7273H789.08C805.557 65.7273 819.619 68.6747 831.267 74.5696C842.986 80.3935 851.899 88.6676 858.007 99.3921C864.186 110.045 867.276 122.581 867.276 136.999C867.276 151.487 864.151 163.952 857.901 174.392C851.651 184.761 842.595 192.716 830.734 198.256C818.945 203.795 804.669 206.565 787.908 206.565H730.273V169.492H780.45C789.257 169.492 796.572 168.284 802.396 165.869C808.22 163.455 812.553 159.832 815.393 155.003C818.305 150.173 819.761 144.172 819.761 136.999C819.761 129.754 818.305 123.646 815.393 118.675C812.553 113.703 808.185 109.939 802.29 107.382C796.466 104.754 789.115 103.44 780.237 103.44H749.129V283.909H703ZM820.827 184.619L875.053 283.909H824.129L771.075 184.619H820.827Z" fill="white"></path>
<path fill-rule="evenodd" clip-rule="evenodd" d="M0 411V106H424V211L395.894 236.5L395.5 151L285.5 252.5L395.5 362.5L396 259L424 233.5V411H0ZM161 271.5L49.5 383C157.667 383.333 374 383 374 383L263.5 272L211.5 318.5L161 271.5ZM52 135H373L211.5 281L52 135ZM28 151L139 253L28 364V151Z" fill="url(#paint0_linear_3034_10)"></path>
<path fill-rule="evenodd" clip-rule="evenodd" d="M297 106V0H483L590 103.5V201L513.5 273L611 410H501L424 306.5V233.5L511.5 152.5L446.5 90H368.5L326 47.5V106H297ZM557 383H515L429.5 266L456 241.5L557 383ZM562 142.5V190L497 250L477 222.5L562 142.5ZM557 110L531 134L458.5 63H381L347 27H471.5L557 110Z" fill="url(#paint1_linear_3034_10)"></path>
<defs>
<linearGradient id="paint0_linear_3034_10" x1="670.849" y1="429.553" x2="291.674" y2="-133.931" gradientUnits="userSpaceOnUse">
<stop stop-color="#FF9386"></stop>
<stop offset="0.5" stop-color="#FE6755"></stop>
<stop offset="1" stop-color="#FF9386"></stop>
</linearGradient>
<linearGradient id="paint1_linear_3034_10" x1="670.849" y1="429.553" x2="291.674" y2="-133.931" gradientUnits="userSpaceOnUse">
<stop stop-color="#FF9386"></stop>
<stop offset="0.5" stop-color="#FE6755"></stop>
<stop offset="1" stop-color="#FF9386"></stop>
</linearGradient>
</defs>
</svg>
